<svg width="24" height="24" viewBox="0 0 24 24" fill="none" xmlns="http://www.w3.org/2000/svg">
<path d="M19 8V5C19 3.89543 18.1046 3 17 3H5C3.89543 3 3 3.89543 3 5V19" stroke="#98A2B3" stroke-width="1.5" stroke-linecap="round" stroke-linejoin="round"/>
<path d="M7 3V17" stroke="#98A2B3" stroke-width="1.5" stroke-linecap="round" stroke-linejoin="round"/>
<path d="M11 17H5C3.89543 17 3 17.8954 3 19V19C3 20.1046 3.89543 21 5 21H10" stroke="#98A2B3" stroke-width="1.5" stroke-linecap="round" stroke-linejoin="round"/>
<path fill-rule="evenodd" clip-rule="evenodd" d="M21 20.498V19.998C21 18.8935 20.1046 17.998 19 17.998H15.5C14.3954 17.998 13.5 18.8935 13.5 19.998V20.498C13.5 20.7742 13.7239 20.998 14 20.998H20.5C20.7761 20.998 21 20.7742 21 20.498Z" stroke="#98A2B3" stroke-width="1.5" stroke-linecap="round" stroke-linejoin="round"/>
<circle cx="17.25" cy="13.5" r="2" stroke="#98A2B3" stroke-width="1.5" stroke-linecap="round" stroke-linejoin="round"/>
</svg>
