<svg width="24" height="24" viewBox="0 0 24 24" fill="none" xmlns="http://www.w3.org/2000/svg">
<path d="M10.9995 18.5018H9.53394C9.19952 18.5019 8.88719 18.3348 8.70159 18.0566L8.29542 17.4474C8.10941 17.1691 7.79677 17.0021 7.46208 17.0022H3.99663C3.4442 17.0024 2.99641 17.4502 2.99622 18.0026V19.003C2.99607 19.5337 3.20682 20.0427 3.58209 20.418C3.95735 20.7933 4.46635 21.004 4.99705 21.0039H10.9995" stroke="#98A2B3" stroke-width="1.5" stroke-linecap="round" stroke-linejoin="round"/>
<path fill-rule="evenodd" clip-rule="evenodd" d="M21.5039 21.0039H15.0012C14.7249 21.0039 14.501 20.78 14.501 20.5037V20.0976C14.5043 18.942 15.4403 18.006 16.5958 18.0027H19.9092C21.0648 18.006 22.0008 18.942 22.0041 20.0976V20.5037C22.0041 20.78 21.7802 21.0039 21.5039 21.0039Z" stroke="#98A2B3" stroke-width="1.5" stroke-linecap="round" stroke-linejoin="round"/>
<path fill-rule="evenodd" clip-rule="evenodd" d="M18.2526 15.5017C17.1483 15.4995 16.2546 14.6031 16.2557 13.4988C16.2568 12.3946 17.1523 11.5 18.2566 11.5C19.3608 11.5 20.2563 12.3946 20.2574 13.4988C20.2585 14.6031 19.3648 15.4995 18.2606 15.5017H18.2526Z" stroke="#98A2B3" stroke-width="1.5" stroke-linecap="round" stroke-linejoin="round"/>
<path d="M20.0034 8.99898V6.99815C20.0034 5.89312 19.1076 4.99731 18.0025 4.99731H5.99754C4.89251 4.99731 3.9967 5.89312 3.9967 6.99815V17.0023" stroke="#98A2B3" stroke-width="1.5" stroke-linecap="round" stroke-linejoin="round"/>
</svg>
