<svg width="24" height="24" viewBox="0 0 24 24" fill="none" xmlns="http://www.w3.org/2000/svg">
<path d="M17.9496 18.45C17.9223 18.4499 17.9001 18.472 17.9 18.4993V18.5C17.9 18.5276 17.9223 18.55 17.95 18.55C17.9776 18.55 18 18.5276 18 18.5C18 18.4724 17.9776 18.45 17.95 18.45H17.9496" stroke="#98A2B3" stroke-width="1.5" stroke-linecap="round" stroke-linejoin="round"/>
<rect x="14" y="10" width="8" height="11" rx="2" stroke="#98A2B3" stroke-width="1.5" stroke-linecap="round" stroke-linejoin="round"/>
<path d="M19 15.5H17" stroke="#98A2B3" stroke-width="1.5" stroke-linecap="round" stroke-linejoin="round"/>
<path d="M17 13H19" stroke="#98A2B3" stroke-width="1.5" stroke-linecap="round" stroke-linejoin="round"/>
<path d="M7.92798 16L7.42798 20" stroke="#98A2B3" stroke-width="1.5" stroke-linecap="round" stroke-linejoin="round"/>
<path d="M19 7V5.428C19 4.08705 17.9129 3 16.572 3H4.428C3.08705 3 2 4.08705 2 5.428V13.572C2 14.9129 3.08705 16 4.428 16H11" stroke="#98A2B3" stroke-width="1.5" stroke-linecap="round" stroke-linejoin="round"/>
<path d="M5.92798 20H9.99998" stroke="#98A2B3" stroke-width="1.5" stroke-linecap="round" stroke-linejoin="round"/>
<path d="M6 7L7.49116 8.49116L6 9.98232" stroke="#98A2B3" stroke-width="1.5" stroke-linecap="round" stroke-linejoin="round"/>
<path d="M9.5 11H11" stroke="#98A2B3" stroke-width="1.5" stroke-linecap="round" stroke-linejoin="round"/>
</svg>
